<svg width="1677" height="383" viewBox="0 0 1677 383" fill="none" xmlns="http://www.w3.org/2000/svg">
<path fill-rule="evenodd" clip-rule="evenodd" d="M88.1662 152.197C21.2171 296.018 17.7135 303.626 17.1661 306.358C15.1521 316.406 15.7321 325.319 18.9819 334.247C22.3116 343.396 27.8653 350.863 35.8246 356.893C39.5182 359.692 48.4676 363.886 52.951 364.92C62.6181 367.15 72.083 366.598 81.2232 363.271C90.116 360.034 96.9625 355.046 103.44 347.084L105.585 344.447L176.211 193.253L246.836 42.0586L202.713 21.4839L158.591 0.90918L88.1662 152.197ZM164.518 121.106C166.498 123.685 166.082 127.197 163.581 129.022C159.378 132.087 153.593 127.706 155.381 122.811C155.872 121.468 156.332 120.843 157.282 120.229C159.751 118.633 162.914 119.016 164.518 121.106ZM139.018 136.053C141.51 138.18 142.431 142.95 140.958 146.108C139.001 150.306 133.564 152.285 129.366 150.327C127.254 149.342 125.872 147.771 124.993 145.356C123.301 140.706 125.294 136.233 129.862 134.432C133.15 133.136 136.239 133.682 139.018 136.053ZM145.528 175.137C147.841 177.676 147.737 181.888 145.307 184.1C143.667 185.594 142.594 186.003 140.408 185.969C136.917 185.914 134.071 182.828 134.216 179.254C134.446 173.584 141.707 170.941 145.528 175.137ZM89.9918 188.734C92.2006 194.064 96.5046 198.937 102.459 202.851C106.401 205.442 117.562 210.201 123.572 211.853C135.629 215.167 146.17 215.579 151.93 212.962L153.845 212.091L124.921 274.108C97.3227 333.281 95.899 336.255 93.8651 338.981C83.3827 353.034 64.9477 357.796 49.2925 350.496C33.6372 343.196 25.4355 326.013 29.4626 308.95C30.2438 305.639 31.607 302.637 59.199 243.454L88.1167 181.428L88.3796 183.453C88.5243 184.567 89.2499 186.944 89.9918 188.734Z" fill="#00FF00"/>
<path d="M440.336 289.59C417.758 289.59 400.653 280.695 390.048 267.353V346.719H342.155V105.885H390.048V124.359C400.653 111.359 417.758 102.465 440.336 102.465C489.939 102.465 518.675 144.884 518.675 195.856C518.675 247.17 489.939 289.59 440.336 289.59ZM389.022 191.067V200.987C389.022 231.434 406.127 248.538 429.047 248.538C456.072 248.538 470.44 226.986 470.44 195.856C470.44 165.068 456.072 143.516 429.047 143.516C406.127 143.516 389.022 160.278 389.022 191.067Z" fill="#00FF00"/>
<path d="M547.278 285.826V40.2036H595.171V124.359C605.091 112.727 621.512 102.465 644.432 102.465C682.062 102.465 704.982 128.122 704.982 167.12V285.826H657.089V180.804C657.089 160.62 648.879 146.252 628.354 146.252C611.591 146.252 595.171 158.226 595.171 181.83V285.826H547.278Z" fill="#00FF00"/>
<path d="M909.295 195.856C909.295 251.959 873.033 289.59 821.035 289.59C769.037 289.59 732.775 251.959 732.775 195.856C732.775 140.095 769.037 102.465 821.035 102.465C873.033 102.465 909.295 140.095 909.295 195.856ZM780.326 195.856C780.326 230.065 796.062 249.907 821.035 249.907C846.008 249.907 861.402 230.065 861.402 195.856C861.402 161.989 846.008 142.147 821.035 142.147C796.062 142.147 780.326 161.989 780.326 195.856Z" fill="#00FF00"/>
<path d="M920.691 255.38L950.453 224.934C962.768 241.696 984.662 252.301 1004.85 252.301C1020.92 252.301 1034.95 246.828 1034.95 233.828C1034.95 220.145 1021.61 218.434 992.873 212.961C963.795 207.145 931.638 199.619 931.638 160.962C931.638 126.411 962.084 102.465 1005.19 102.465C1037 102.465 1065.4 115.464 1079.42 133.595L1052.05 163.699C1040.08 148.305 1022.63 139.753 1003.82 139.753C988.767 139.753 978.847 146.252 978.847 156.173C978.847 167.804 990.82 169.857 1013.06 174.304C1044.53 180.804 1081.82 187.988 1081.82 228.697C1081.82 266.327 1046.92 289.59 1003.82 289.59C971.321 289.59 937.111 277.616 920.691 255.38Z" fill="#00FF00"/>
<path d="M1208.04 289.59C1185.46 289.59 1168.36 280.695 1157.75 267.353V346.719H1109.86V105.885H1157.75V124.359C1168.36 111.359 1185.46 102.465 1208.04 102.465C1257.64 102.465 1286.38 144.884 1286.38 195.856C1286.38 247.17 1257.64 289.59 1208.04 289.59ZM1156.73 191.067V200.987C1156.73 231.434 1173.83 248.538 1196.75 248.538C1223.78 248.538 1238.15 226.986 1238.15 195.856C1238.15 165.068 1223.78 143.516 1196.75 143.516C1173.83 143.516 1156.73 160.278 1156.73 191.067Z" fill="#00FF00"/>
<path d="M1314.98 285.826V40.2036H1362.88V124.359C1372.8 112.727 1389.22 102.465 1412.14 102.465C1449.77 102.465 1472.69 128.122 1472.69 167.12V285.826H1424.79V180.804C1424.79 160.62 1416.58 146.252 1396.06 146.252C1379.3 146.252 1362.88 158.226 1362.88 181.83V285.826H1314.98Z" fill="#00FF00"/>
<path d="M1677 195.856C1677 251.959 1640.74 289.59 1588.74 289.59C1536.74 289.59 1500.48 251.959 1500.48 195.856C1500.48 140.095 1536.74 102.465 1588.74 102.465C1640.74 102.465 1677 140.095 1677 195.856ZM1548.03 195.856C1548.03 230.065 1563.77 249.907 1588.74 249.907C1613.71 249.907 1629.11 230.065 1629.11 195.856C1629.11 161.989 1613.71 142.147 1588.74 142.147C1563.77 142.147 1548.03 161.989 1548.03 195.856Z" fill="#00FF00"/>
</svg>